<svg width="344" height="146" viewBox="0 0 344 146" fill="none" xmlns="http://www.w3.org/2000/svg">
<circle cx="338" cy="6" r="5" fill="white" stroke="#3B6DA7" stroke-width="2"/>
<path d="M0 139.5L10.073 145.145L9.92536 133.599L0 139.5ZM8.99145 139.385L9.01738 140.385C51.5324 139.282 82.0415 130.363 106.643 117.576C131.222 104.801 149.862 88.1815 168.609 71.7969C187.375 55.3969 206.259 39.2206 231.426 27.1245C256.578 15.0361 288.057 7 332 7V6V5C287.796 5 256.015 13.0875 230.56 25.3219C205.121 37.5486 186.055 53.8943 167.293 70.291C148.514 86.7031 130.051 103.155 105.72 115.802C81.412 128.436 51.2047 137.29 8.96552 138.385L8.99145 139.385Z" fill="#3B6DA7"/>
</svg>
