<svg width="188" height="171" viewBox="0 0 188 171" fill="none" xmlns="http://www.w3.org/2000/svg">
<path d="M77.0158 5.09488C77.0158 5.09125 77.0126 5.08857 77.0092 5.08986C72.8888 6.64874 60.5186 14.5172 53.5153 20.3908C53.5089 20.3962 53.4993 20.3939 53.4957 20.3864C53.492 20.3787 53.4821 20.3767 53.4757 20.3823C49.4057 23.9268 48.1325 29.865 50.3688 34.8743C53.9506 42.8841 63.75 45.2487 70.4515 39.8138C79.7888 32.2319 91.5452 27.7129 104.32 27.7129C123.031 27.7129 139.553 37.4116 149.511 52.2301C151.808 55.4805 153.808 59.0237 155.44 62.8372C180.246 120.7 110.234 173.36 66.6169 127.351C62.2119 122.704 58.4784 117.299 55.1421 111.384L25.816 44.2954C23.3679 38.6953 17.6991 35.4073 11.8354 36.173C2.97469 37.3291 -2.39082 46.9453 1.05379 55.518L9.1851 75.7939C32.8135 129.648 48.4334 175.529 115.831 170.642C152.631 167.97 183.329 134.279 187.46 96.7303C194.32 34.3289 134.619 -16.6331 77.0229 5.09971C77.0195 5.10099 77.0158 5.09851 77.0158 5.09488Z" fill="#2A66BC" fill-opacity="0.1"/>
</svg>
