<svg width="60" height="52" viewBox="0 0 60 52" fill="none" xmlns="http://www.w3.org/2000/svg">
<g clip-path="url(#clip0_427_3944)">
<path d="M4.8776 11.8512C7.13024 11.8512 8.95637 10.0434 8.95637 7.81332C8.95637 5.58323 7.13024 3.77539 4.8776 3.77539C2.62496 3.77539 0.798828 5.58323 0.798828 7.81332C0.798828 10.0434 2.62496 11.8512 4.8776 11.8512Z" fill="#3B6DA7"/>
<path d="M25.5301 5.02555C24.4298 5.42113 21.1174 7.42767 19.245 8.92398L19.2411 8.91633C18.1505 9.81832 17.8088 11.3318 18.4072 12.6084C19.3646 14.6474 21.9841 15.2494 23.7754 13.8658C26.2713 11.9357 29.4139 10.7853 32.8286 10.7853C37.8301 10.7853 42.2467 13.2543 44.9086 17.0266C45.5224 17.854 46.0571 18.756 46.4934 19.7268C53.124 34.4567 34.4096 47.8624 22.7504 36.1499C21.5729 34.967 20.575 33.5911 19.6832 32.0852L11.8441 15.0067C11.1897 13.5811 9.67444 12.7441 8.10701 12.939C5.73851 13.2333 4.30428 15.6812 5.22504 17.8636L7.39859 23.0252C13.7146 36.7346 17.8899 48.4146 35.9056 47.1706C45.7425 46.4903 53.9483 37.9137 55.0524 28.3549C56.8862 12.4689 40.9263 -0.504858 25.5301 5.02937V5.02555Z" fill="#243348"/>
<path d="M36.4731 34.8263V25.9593C36.7781 26.0854 37.888 25.3478 37.9652 25.3746C38.3667 25.5141 38.9593 26.4218 39.1041 26.8174C39.1369 26.9053 39.3029 27.4422 39.3029 27.4766V30.3928L39.8376 29.638C42.5459 24.9713 40.0558 18.988 34.842 17.5796C27.7152 15.6533 21.8219 23.1081 25.3544 29.5386L25.9451 30.3928V27.4766C25.9451 27.4422 26.1111 26.9053 26.1439 26.8174C26.2887 26.4218 26.8813 25.5141 27.2828 25.3746C27.3581 25.3478 28.47 26.0854 28.775 25.9593V34.8263C25.6092 33.5937 23.1172 30.5686 22.5902 27.2187C21.1676 18.1625 31.4485 11.9384 38.8261 17.5242C45.0476 22.2367 43.6867 31.9579 36.475 34.8244L36.4731 34.8263Z" fill="#3B6DA7"/>
<path d="M32.0536 24.0327C32.0961 24.0728 32.3624 24.5792 32.3644 24.6576L31.8509 27.5374C31.8663 27.6043 32.5323 28.2655 32.5999 28.2827C32.8161 28.34 33.2407 27.7763 33.3971 27.6139L32.8836 24.6576L33.1944 24.0346L34.453 23.4766C35.256 24.0021 35.6807 24.8983 35.7695 25.8386L35.7598 35.1298C33.677 35.7375 31.5729 35.7375 29.4901 35.1298L29.4805 25.8386C29.5693 24.8983 29.9939 24.004 30.7969 23.4766L32.0574 24.0327H32.0536Z" fill="#3B6DA7"/>
<path d="M32.2893 19.4443C35.0902 19.0525 35.3682 23.165 32.7372 23.314C30.2606 23.4554 29.9189 19.7749 32.2893 19.4443Z" fill="#3B6DA7"/>
<path d="M29.9382 21.5373C29.8397 21.8832 30.4207 22.7183 30.3088 22.9247C30.2586 23.0164 29.9555 23.175 29.832 23.3126C29.3668 23.8248 29.002 24.5032 28.8456 25.1758C25.8941 24.6522 27.0967 20.4633 29.9401 21.5392L29.9382 21.5373Z" fill="#3B6DA7"/>
<path d="M36.402 25.1731C36.2437 24.5004 35.8789 23.822 35.4156 23.3098C35.2901 23.1722 34.9427 22.985 34.9118 22.8684C34.8848 22.7652 35.2013 22.1078 35.2612 21.9129C35.377 21.5364 35.2187 21.4447 35.8132 21.3721C38.5041 21.0415 38.9964 24.8081 36.402 25.1711V25.1731Z" fill="#3B6DA7"/>
</g>
<defs>
<clipPath id="clip0_427_3944">
<rect width="60" height="52" fill="white"/>
</clipPath>
</defs>
</svg>
