<svg width="113" height="7" viewBox="0 0 113 7" fill="none" xmlns="http://www.w3.org/2000/svg">
<path d="M112 3C112.276 3 112.5 3.22386 112.5 3.5C112.5 3.77614 112.276 4 112 4V3.5V3ZM0 3.5L5 0.613249V6.38675L0 3.5ZM112 3.5V4H110.526V3.5V3H112V3.5ZM107.579 3.5V4H104.632V3.5V3H107.579V3.5ZM101.684 3.5V4H98.7368V3.5V3H101.684V3.5ZM95.7895 3.5V4H92.8421V3.5V3H95.7895V3.5ZM89.8947 3.5V4H86.9474V3.5V3H89.8947V3.5ZM84 3.5V4H81.0526V3.5V3H84V3.5ZM78.1053 3.5V4H75.1579V3.5V3H78.1053V3.5ZM72.2105 3.5V4H69.2632V3.5V3H72.2105V3.5ZM66.3158 3.5V4H63.3684V3.5V3H66.3158V3.5ZM60.4211 3.5V4H57.4737V3.5V3H60.4211V3.5ZM54.5263 3.5V4H51.5789V3.5V3H54.5263V3.5ZM48.6316 3.5V4H45.6842V3.5V3H48.6316V3.5ZM42.7368 3.5V4H39.7895V3.5V3H42.7368V3.5ZM36.8421 3.5V4H33.8948V3.5V3H36.8421V3.5ZM30.9474 3.5V4H28V3.5V3H30.9474V3.5ZM25.0527 3.5V4H22.1053V3.5V3H25.0527V3.5ZM19.1579 3.5V4H16.2106V3.5V3H19.1579V3.5ZM13.2632 3.5V4H10.3158V3.5V3H13.2632V3.5ZM7.36847 3.5V4H4.4211V3.5V3H7.36847V3.5Z" fill="url(#paint0_linear_438_23331)"/>
<defs>
<linearGradient id="paint0_linear_438_23331" x1="112" y1="4" x2="0" y2="4" gradientUnits="userSpaceOnUse">
<stop stop-color="#3B6DA7" stop-opacity="0.5"/>
<stop offset="0.5" stop-color="#3C597D"/>
<stop offset="1" stop-color="#243348"/>
</linearGradient>
</defs>
</svg>
