<svg width="136" height="48" viewBox="0 0 136 48" fill="none" xmlns="http://www.w3.org/2000/svg">
<path d="M73.3521 30.8242C73.9343 31.5686 74.2245 32.4188 74.2245 33.3767C74.2245 34.7561 73.7414 35.8498 72.7735 36.6577C71.8056 37.4656 70.4573 37.8696 68.7285 37.8696H61.0137V21.3604H68.4684C70.1512 21.3604 71.4677 21.7449 72.4196 22.5122C73.3716 23.2813 73.8476 24.3239 73.8476 25.6398C73.8476 26.6118 73.591 27.4197 73.0814 28.0618C72.57 28.7056 71.8906 29.1519 71.0412 29.4024C72.0003 29.607 72.7717 30.0815 73.3539 30.8259L73.3521 30.8242ZM65.048 28.0371H67.6899C68.3499 28.0371 68.8577 27.8924 69.2116 27.6014C69.5655 27.3121 69.7424 26.8834 69.7424 26.3189C69.7424 25.7545 69.5655 25.324 69.2116 25.0259C68.8577 24.7278 68.3499 24.5796 67.6899 24.5796H65.048V28.0371ZM69.5885 34.1634C69.9583 33.8582 70.1423 33.4155 70.1423 32.8351C70.1423 32.2548 69.9495 31.7997 69.5637 31.4716C69.178 31.1417 68.6471 30.9776 67.9712 30.9776H65.0463V34.6238H68.019C68.6949 34.6238 69.2187 34.4703 69.5867 34.1652L69.5885 34.1634Z" fill="#3B6DA7"/>
<path d="M79.072 37.2327C78.0422 36.6841 77.2318 35.9009 76.6425 34.8813C76.0533 33.8617 75.7578 32.671 75.7578 31.3074C75.7578 29.9439 76.0568 28.7708 76.6549 27.7442C77.253 26.7175 78.0705 25.929 79.1092 25.3804C80.1478 24.8318 81.3104 24.5566 82.6003 24.5566C83.8903 24.5566 85.0528 24.8318 86.0915 25.3804C87.1301 25.929 87.9476 26.7175 88.5439 27.7442C89.142 28.7708 89.4411 29.9597 89.4411 31.3074C89.4411 32.6551 89.1385 33.8441 88.5333 34.8707C87.9282 35.8973 87.1018 36.6859 86.0561 37.2345C85.0103 37.7831 83.8425 38.0582 82.5525 38.0582C81.2626 38.0582 80.1036 37.7848 79.072 37.2345V37.2327ZM84.522 33.7276C85.0652 33.1632 85.3359 32.3553 85.3359 31.3057C85.3359 30.2561 85.0723 29.4482 84.545 28.8837C84.0177 28.3192 83.3683 28.037 82.5985 28.037C81.8288 28.037 81.16 28.3157 80.6398 28.8714C80.1213 29.4288 79.8612 30.2402 79.8612 31.3057C79.8612 32.3711 80.116 33.1632 80.6274 33.7276C81.1387 34.2921 81.7793 34.5744 82.5508 34.5744C83.3223 34.5744 83.9787 34.2921 84.5202 33.7276H84.522Z" fill="#3B6DA7"/>
<path d="M91.5513 27.7299C92.0627 26.7103 92.7581 25.9271 93.6393 25.3785C94.5205 24.8299 95.5025 24.5547 96.589 24.5547C97.5162 24.5547 98.3301 24.7434 99.0308 25.1192C99.7298 25.4949 100.269 25.9888 100.646 26.6009V24.7434H104.681V37.8658H100.646V36.0083C100.254 36.6204 99.7068 37.1143 99.0061 37.49C98.3054 37.8658 97.4914 38.0545 96.5642 38.0545C95.4937 38.0545 94.5187 37.7758 93.6393 37.2202C92.7581 36.6645 92.0627 35.8725 91.5513 34.8441C91.04 33.8174 90.7852 32.6302 90.7852 31.2808C90.7852 29.9313 91.04 28.7495 91.5513 27.7299ZM99.8094 28.9294C99.2503 28.349 98.5708 28.0597 97.7692 28.0597C96.9677 28.0597 96.2864 28.3455 95.729 28.9188C95.1699 29.4921 94.8921 30.2788 94.8921 31.2826C94.8921 32.2863 95.1717 33.0818 95.729 33.6692C96.2864 34.2566 96.9677 34.5512 97.7692 34.5512C98.5708 34.5512 99.252 34.2619 99.8094 33.6816C100.367 33.1012 100.646 32.3092 100.646 31.3055C100.646 30.3018 100.367 29.5097 99.8094 28.9294Z" fill="#3B6DA7"/>
<path d="M113.409 25.2252C114.117 24.8107 114.903 24.6025 115.768 24.6025V28.8591H114.658C113.652 28.8591 112.896 29.0743 112.393 29.5064C111.889 29.9386 111.638 30.6936 111.638 31.7749V37.866H107.604V24.7437H111.638V26.931C112.11 26.2095 112.7 25.6415 113.407 25.2252H113.409Z" fill="#3B6DA7"/>
<path d="M117.667 27.7298C118.178 26.7102 118.873 25.927 119.755 25.3783C120.636 24.8297 121.618 24.5546 122.704 24.5546C123.569 24.5546 124.359 24.7345 125.075 25.0961C125.79 25.456 126.353 25.9428 126.762 26.5549V20.4639H130.796V37.8674H126.762V35.9852C126.385 36.6132 125.845 37.1142 125.146 37.4899C124.445 37.8657 123.631 38.0544 122.704 38.0544C121.62 38.0544 120.636 37.7757 119.755 37.22C118.873 36.6644 118.178 35.8723 117.667 34.8439C117.155 33.8173 116.9 32.6301 116.9 31.2807C116.9 29.9312 117.155 28.7493 117.667 27.7298ZM125.923 28.9293C125.364 28.3489 124.684 28.0596 123.883 28.0596C123.081 28.0596 122.4 28.3454 121.842 28.9187C121.283 29.492 121.006 30.2787 121.006 31.2824C121.006 32.2861 121.285 33.0817 121.842 33.6691C122.4 34.2565 123.081 34.5511 123.883 34.5511C124.684 34.5511 125.365 34.2618 125.923 33.6815C126.48 33.1011 126.76 32.3091 126.76 31.3054C126.76 30.3017 126.48 29.5096 125.923 28.9293Z" fill="#3B6DA7"/>
<path d="M4.47129 10.94C6.53622 10.94 8.21017 9.27121 8.21017 7.21267C8.21017 5.15413 6.53622 3.48535 4.47129 3.48535C2.40637 3.48535 0.732422 5.15413 0.732422 7.21267C0.732422 9.27121 2.40637 10.94 4.47129 10.94Z" fill="#3B6DA7"/>
<path d="M23.4024 4.63882C22.3938 5.00397 19.3574 6.85616 17.6411 8.23737L17.6375 8.23031C16.6378 9.06291 16.3246 10.46 16.8731 11.6383C17.7508 13.5205 20.1519 14.0762 21.794 12.7991C24.0819 11.0174 26.9626 9.95549 30.0928 9.95549C34.6774 9.95549 38.726 12.2346 41.1661 15.7167C41.7287 16.4805 42.2189 17.3131 42.6188 18.2092C48.6969 31.8061 31.542 44.1805 20.8544 33.369C19.775 32.2771 18.8602 31.007 18.0427 29.617L10.8569 13.8522C10.2571 12.5362 8.86807 11.7636 7.43127 11.9435C5.26014 12.2152 3.94543 14.4748 4.78946 16.4893L6.78187 21.2539C12.5716 33.9087 16.3989 44.6903 32.9133 43.5419C41.9305 42.9139 49.4524 34.9971 50.4646 26.1736C52.1456 11.5096 37.5157 -0.466173 23.4024 4.64235V4.63882Z" fill="#243348"/>
<path d="M33.434 32.1468V23.9618C33.7136 24.0783 34.731 23.3974 34.8018 23.4221C35.1698 23.5508 35.7131 24.3887 35.8458 24.7539C35.8758 24.835 36.028 25.3307 36.028 25.3625V28.0543L36.5182 27.3575C39.0007 23.0499 36.7181 17.5268 31.9388 16.2267C25.4059 14.4486 20.0038 21.33 23.2419 27.2658L23.7833 28.0543V25.3625C23.7833 25.3307 23.9355 24.835 23.9656 24.7539C24.0983 24.3887 24.6415 23.5508 25.0096 23.4221C25.0786 23.3974 26.0978 24.0783 26.3774 23.9618V32.1468C23.4755 31.009 21.1911 28.2166 20.708 25.1243C19.4039 16.7648 28.8281 11.0194 35.591 16.1756C41.2939 20.5256 40.0465 29.499 33.4358 32.145L33.434 32.1468Z" fill="#3B6DA7"/>
<path d="M29.3841 22.1832C29.423 22.2203 29.6672 22.6877 29.669 22.7601L29.1983 25.4184C29.2124 25.4801 29.8229 26.0905 29.8848 26.1064C30.083 26.1593 30.4723 25.6389 30.6156 25.489L30.145 22.7601L30.4298 22.185L31.5835 21.6699C32.3196 22.155 32.7089 22.9823 32.7903 23.8502L32.7814 32.4267C30.8722 32.9877 28.9435 32.9877 27.0342 32.4267L27.0254 23.8502C27.1068 22.9823 27.4961 22.1568 28.2322 21.6699L29.3876 22.1832H29.3841Z" fill="#3B6DA7"/>
<path d="M29.5989 17.9481C32.1664 17.5865 32.4212 21.3826 30.0094 21.5202C27.7392 21.6507 27.426 18.2533 29.5989 17.9481Z" fill="#3B6DA7"/>
<path d="M27.4449 19.8804C27.3547 20.1996 27.8873 20.9705 27.7847 21.161C27.7387 21.2457 27.4609 21.3921 27.3476 21.5191C26.9212 21.9919 26.5868 22.6181 26.4434 23.239C23.7379 22.7557 24.8403 18.889 27.4467 19.8821L27.4449 19.8804Z" fill="#3B6DA7"/>
<path d="M33.3675 23.2365C33.2224 22.6156 32.888 21.9894 32.4633 21.5166C32.3483 21.3896 32.0298 21.2167 32.0015 21.1091C31.9767 21.0139 32.2669 20.4071 32.3218 20.2271C32.4279 19.8796 32.2828 19.795 32.8278 19.7279C35.2945 19.4228 35.7457 22.8996 33.3675 23.2348V23.2365Z" fill="#3B6DA7"/>
<path d="M65.8797 12.049L64.2624 16.496L62.6398 12.049C62.5195 11.7191 62.2063 11.4969 61.8524 11.4969C61.3923 11.4969 61.0137 11.8691 61.0137 12.333V18.4064C61.0137 18.724 61.272 18.985 61.5941 18.985C61.9161 18.985 62.1744 18.7275 62.1744 18.4064V13.8395L63.5882 17.5827C63.6944 17.8578 63.9616 18.0413 64.2571 18.0413C64.5526 18.0413 64.8233 17.8578 64.926 17.5774L66.3451 13.7372V18.4047C66.3451 18.7222 66.6034 18.9833 66.9254 18.9833C67.2475 18.9833 67.5058 18.7257 67.5058 18.4047V12.3313C67.5058 11.8726 67.1325 11.4951 66.6671 11.4951C66.3132 11.4951 65.9982 11.7156 65.8797 12.0472" fill="#243348"/>
<path d="M74.0861 18.9854C73.8242 18.9854 73.5889 18.8196 73.5057 18.5726L73.1554 17.5672L72.7448 16.387L71.7079 13.4094L70.671 16.387L70.2605 17.5672L69.9102 18.5726C69.8235 18.8214 69.5917 18.9854 69.3298 18.9854C68.9016 18.9854 68.6008 18.5585 68.7529 18.1546L71.1028 11.9171C71.1895 11.6648 71.4301 11.499 71.7026 11.499C71.9751 11.499 72.214 11.6648 72.3113 11.9171L74.6612 18.1546C74.8133 18.5585 74.5125 18.9854 74.0843 18.9854" fill="#243348"/>
<path d="M77.1832 17.8055L80.2426 12.7834C80.3258 12.6511 80.3665 12.4994 80.3665 12.3424C80.3665 11.8732 79.9843 11.4922 79.5136 11.4922H76.3799C76.0526 11.4922 75.7907 11.7533 75.7907 12.0796C75.7907 12.4059 76.0526 12.667 76.3799 12.667H78.8872L75.8172 17.6891C75.7341 17.8214 75.6934 17.9731 75.6934 18.1301C75.6934 18.5993 76.0756 18.9803 76.5462 18.9803H79.8781C80.2055 18.9803 80.4674 18.714 80.4674 18.3929C80.4674 18.0719 80.2055 17.8055 79.8781 17.8055H77.1815H77.1832Z" fill="#243348"/>
<path d="M86.6896 18.9854C86.4277 18.9854 86.1924 18.8196 86.1092 18.5726L85.7589 17.5672L85.3484 16.387L84.3115 13.4094L83.2745 16.387L82.864 17.5672L82.5137 18.5726C82.427 18.8214 82.1952 18.9854 81.9333 18.9854C81.5051 18.9854 81.2043 18.5585 81.3564 18.1546L83.7063 11.9171C83.793 11.6648 84.0372 11.499 84.3061 11.499C84.5751 11.499 84.8175 11.6648 84.9148 11.9171L87.2647 18.1546C87.4169 18.5585 87.116 18.9854 86.6878 18.9854" fill="#243348"/>
<path d="M91.3113 11.8375L89.9294 14.801L88.5474 11.8375C88.4501 11.6311 88.2431 11.4971 88.013 11.4971C87.576 11.4971 87.2893 11.9557 87.484 12.3473L89.3136 16.0182V18.3696C89.3136 18.71 89.5896 18.9799 89.9258 18.9799C90.262 18.9799 90.5381 18.7047 90.5381 18.3696V16.0182L92.3677 12.3473C92.5694 11.9575 92.2845 11.4971 91.8475 11.4971C91.6174 11.4971 91.4104 11.6294 91.3131 11.8375" fill="#243348"/>
<path d="M97.9279 18.9854C97.666 18.9854 97.4307 18.8196 97.3475 18.5726L96.9972 17.5672L96.5866 16.387L95.5497 13.4094L94.5128 16.387L94.1023 17.5672L93.752 18.5726C93.6653 18.8214 93.4335 18.9854 93.1716 18.9854C92.7434 18.9854 92.4426 18.5585 92.5947 18.1546L94.9446 11.9171C95.0313 11.6648 95.2755 11.499 95.548 11.499C95.8205 11.499 96.0593 11.6648 96.1567 11.9171L98.5065 18.1546C98.6551 18.5585 98.3579 18.9854 97.9261 18.9854" fill="#243348"/>
</svg>
