<svg width="64" height="7" viewBox="0 0 64 7" fill="none" xmlns="http://www.w3.org/2000/svg">
<path d="M0 3.5L5 6.38675L5 0.613249L0 3.5ZM4.36364 3.5L4.36364 4L7.27273 4L7.27273 3.5L7.27273 3L4.36364 3L4.36364 3.5ZM10.1818 3.5L10.1818 4L13.0909 4L13.0909 3.5L13.0909 3L10.1818 3L10.1818 3.5ZM16 3.5L16 4L18.9091 4L18.9091 3.5L18.9091 3L16 3L16 3.5ZM21.8182 3.5L21.8182 4L24.7273 4L24.7273 3.5L24.7273 3L21.8182 3L21.8182 3.5ZM27.6364 3.5L27.6364 4L30.5455 4.00001L30.5455 3.50001L30.5455 3.00001L27.6364 3L27.6364 3.5ZM33.4546 3.50001L33.4546 4.00001L36.3636 4.00001L36.3636 3.50001L36.3636 3.00001L33.4546 3.00001L33.4546 3.50001ZM39.2727 3.50001L39.2727 4.00001L42.1818 4.00001L42.1818 3.50001L42.1818 3.00001L39.2727 3.00001L39.2727 3.50001ZM45.0909 3.50001L45.0909 4.00001L48 4.00001L48 3.50001L48 3.00001L45.0909 3.00001L45.0909 3.50001ZM50.9091 3.50001L50.9091 4.00001L53.8182 4.00001L53.8182 3.50001L53.8182 3.00001L50.9091 3.00001L50.9091 3.50001ZM56.7273 3.50001L56.7273 4.00001L59.6364 4.00001L59.6364 3.50001L59.6364 3.00001L56.7273 3.00001L56.7273 3.50001ZM62.5455 3.50001L62.5455 4.00001L64 4.00001L64 3.50001L64 3.00001L62.5455 3.00001L62.5455 3.50001Z" fill="url(#paint0_linear_438_23552)"/>
<defs>
<linearGradient id="paint0_linear_438_23552" x1="32" y1="3.00001" x2="31.9688" y2="4.99952" gradientUnits="userSpaceOnUse">
<stop stop-color="#52BBE8"/>
<stop offset="1" stop-color="#097BD8"/>
</linearGradient>
</defs>
</svg>
